<svg 
 xmlns="http://www.w3.org/2000/svg"
 xmlns:xlink="http://www.w3.org/1999/xlink"
 width="36px" height="31px">
<path fill-rule="evenodd"  fill="rgb(255, 255, 255)"
 d="M34.448,21.947 L27.554,21.947 L27.554,29.081 C27.554,29.807 26.949,30.411 26.222,30.411 L21.869,30.411 C21.144,30.411 20.540,29.807 20.540,29.081 L20.540,21.947 L22.475,21.947 C23.321,21.947 23.926,21.342 24.047,20.616 C24.047,20.375 24.047,20.133 23.926,19.889 L18.121,9.371 L22.595,1.028 C23.201,-0.060 24.773,-0.060 25.377,1.028 L35.778,19.891 C36.262,20.859 35.536,21.947 34.448,21.947 ZM11.832,20.616 C11.952,21.342 12.557,21.947 13.404,21.947 L15.339,21.947 L15.339,29.081 C15.339,29.807 14.734,30.411 14.008,30.411 L9.897,30.411 C9.171,30.411 8.566,29.807 8.566,29.081 L8.566,21.947 L1.551,21.947 C0.463,21.947 -0.263,20.859 0.221,19.891 L10.622,1.028 C11.227,-0.060 12.799,-0.060 13.404,1.028 L17.758,9.369 L11.952,19.889 C11.832,20.133 11.832,20.375 11.832,20.616 Z"/>
</svg>