<svg 
 xmlns="http://www.w3.org/2000/svg"
 xmlns:xlink="http://www.w3.org/1999/xlink"
 width="32px" height="32px">
<path fill-rule="evenodd"  fill="rgb(255, 255, 255)"
 d="M15.999,31.478 C7.447,31.460 0.519,24.532 0.519,15.998 C0.519,7.447 7.447,0.518 15.999,0.518 C24.550,0.518 31.478,7.447 31.478,15.998 C31.478,24.550 24.550,31.478 15.999,31.478 ZM22.963,9.702 C21.646,9.106 20.275,8.673 18.849,8.438 C18.669,8.763 18.470,9.178 18.326,9.521 C16.810,9.286 15.277,9.286 13.761,9.521 C13.599,9.142 13.419,8.781 13.220,8.438 C11.795,8.673 10.406,9.106 9.107,9.720 C6.509,13.598 5.805,17.369 6.148,21.103 C7.682,22.240 9.377,23.106 11.200,23.648 C11.615,23.088 11.975,22.511 12.282,21.898 C11.687,21.681 11.128,21.410 10.586,21.086 C10.731,20.978 10.857,20.869 11.002,20.761 C14.194,22.276 17.911,22.276 21.105,20.761 C21.249,20.869 21.375,20.978 21.520,21.086 C20.978,21.410 20.401,21.681 19.805,21.898 C20.112,22.511 20.473,23.088 20.888,23.648 C22.710,23.088 24.424,22.240 25.939,21.103 C26.336,16.774 25.218,13.021 22.963,9.702 ZM19.354,18.795 C18.362,18.795 17.568,17.893 17.568,16.792 C17.568,15.691 18.362,14.771 19.354,14.771 C20.365,14.771 21.159,15.673 21.141,16.792 C21.123,17.910 20.347,18.795 19.354,18.795 ZM12.715,18.795 C11.723,18.795 10.929,17.893 10.929,16.792 C10.929,15.691 11.723,14.771 12.715,14.771 C13.725,14.771 14.519,15.673 14.519,16.792 C14.501,17.893 13.725,18.795 12.715,18.795 Z"/>
</svg>