<svg 
 xmlns="http://www.w3.org/2000/svg"
 xmlns:xlink="http://www.w3.org/1999/xlink"
 width="31px" height="31px">
<path fill-rule="evenodd"  fill="rgb(255, 255, 255)"
 d="M22.145,30.331 L8.854,30.331 C4.341,30.331 0.668,26.658 0.668,22.144 L0.668,8.854 C0.668,4.340 4.341,0.668 8.854,0.668 L22.145,0.668 C26.658,0.668 30.331,4.340 30.331,8.854 L30.331,22.144 C30.331,26.658 26.658,30.331 22.145,30.331 ZM27.699,8.854 C27.699,5.792 25.207,3.300 22.145,3.300 L8.854,3.300 C5.792,3.300 3.300,5.792 3.300,8.854 L3.300,22.144 C3.300,25.207 5.792,27.699 8.854,27.699 L22.145,27.699 C25.207,27.699 27.699,25.207 27.699,22.144 L27.699,8.854 ZM23.463,9.485 C22.956,9.485 22.458,9.278 22.100,8.919 C21.740,8.560 21.533,8.062 21.533,7.555 C21.533,7.046 21.740,6.548 22.100,6.190 C22.458,5.830 22.956,5.625 23.463,5.625 C23.972,5.625 24.470,5.830 24.828,6.190 C25.188,6.548 25.393,7.046 25.393,7.555 C25.393,8.061 25.188,8.560 24.828,8.919 C24.469,9.278 23.972,9.485 23.463,9.485 ZM15.500,23.142 C11.285,23.142 7.856,19.714 7.856,15.500 C7.856,11.285 11.285,7.856 15.500,7.856 C19.714,7.856 23.143,11.285 23.143,15.500 C23.143,19.714 19.714,23.142 15.500,23.142 ZM15.500,10.487 C12.736,10.487 10.488,12.736 10.488,15.500 C10.488,18.263 12.736,20.510 15.500,20.510 C18.263,20.510 20.511,18.263 20.511,15.500 C20.511,12.736 18.263,10.487 15.500,10.487 Z"/>
</svg>