<svg 
 xmlns="http://www.w3.org/2000/svg"
 xmlns:xlink="http://www.w3.org/1999/xlink"
 width="32px" height="25px">
<path fill-rule="evenodd"  fill="rgb(255, 255, 255)"
 d="M31.300,3.013 C30.175,3.513 28.965,3.848 27.694,4.003 C28.990,3.228 29.985,1.993 30.454,0.534 C29.239,1.254 27.895,1.773 26.465,2.059 C25.320,0.839 23.689,0.074 21.885,0.074 C18.419,0.074 15.605,2.882 15.605,6.346 C15.605,6.837 15.660,7.316 15.770,7.776 C10.555,7.516 5.930,5.017 2.830,1.219 C2.290,2.143 1.979,3.223 1.979,4.372 C1.979,6.551 3.090,8.471 4.770,9.595 C3.740,9.561 2.775,9.280 1.925,8.805 L1.925,8.886 C1.925,11.925 4.090,14.464 6.959,15.038 C6.435,15.178 5.880,15.258 5.304,15.258 C4.900,15.258 4.510,15.218 4.124,15.143 C4.924,17.637 7.240,19.452 9.990,19.501 C7.844,21.186 5.134,22.185 2.195,22.185 C1.690,22.185 1.190,22.155 0.699,22.100 C3.479,23.885 6.775,24.924 10.320,24.924 C21.865,24.924 28.180,15.363 28.180,7.072 L28.160,6.257 C29.395,5.372 30.460,4.268 31.300,3.013 Z"/>
</svg>